<svg width="50" height="51" viewBox="0 0 50 51" fill="none" xmlns="http://www.w3.org/2000/svg">
<path d="M25 0.609375C11.1942 0.609375 0 11.8036 0 25.6094C0 39.4152 11.1942 50.6094 25 50.6094C38.8058 50.6094 50 39.4152 50 25.6094C50 11.8036 38.8058 0.609375 25 0.609375ZM34.3192 35.9665C32.0536 38.0536 28.9621 39.2812 25.2734 39.2812C19.933 39.2812 15.3125 36.2176 13.0636 31.7533C12.1373 29.9062 11.6071 27.8192 11.6071 25.6094C11.6071 23.3996 12.1373 21.3125 13.0636 19.4654C15.3125 14.9955 19.933 11.9319 25.2734 11.9319C28.9565 11.9319 32.048 13.2879 34.4196 15.4922L30.5022 19.4152C29.0848 18.0592 27.2824 17.3728 25.279 17.3728C21.7188 17.3728 18.7054 19.7779 17.6283 23.0089C17.3549 23.8292 17.1987 24.7054 17.1987 25.6094C17.1987 26.5134 17.3549 27.3895 17.6283 28.2098C18.7054 31.4408 21.7188 33.846 25.2734 33.846C27.115 33.846 28.6775 33.3605 29.8996 32.5402C31.3504 31.5692 32.3103 30.1239 32.6283 28.4107H25.2734V23.1205H38.1473C38.3092 24.019 38.3929 24.9509 38.3929 25.9163C38.3929 30.0848 36.9029 33.5837 34.3192 35.9665Z" fill="#EA4335"/>
</svg>
