<svg width="18" height="21" viewBox="0 0 18 21" fill="none" xmlns="http://www.w3.org/2000/svg">
<path d="M11.3795 0.421875L10.8471 1.59835L9.66207 2.13935L10.8471 2.68036L11.3795 3.85683L11.9206 2.68036L13.097 2.13935L11.9206 1.59835L11.3795 0.421875ZM7.51523 2.13935L6.5792 4.20891L4.50965 5.14493L6.5792 6.08096L7.51523 8.15051L8.45984 6.08096L10.5208 5.14493L8.45984 4.20891L7.51523 2.13935ZM14.72 4.83579C13.5779 4.76709 12.2726 5.27374 11.2421 6.29564C9.87676 7.66103 9.44739 9.50732 10.0571 10.8212L1.67581 19.2025L2.88663 20.4133L8.80333 14.5138L14.7114 20.4219L15.9223 19.2111L10.0142 13.3029L11.2765 12.0406C12.5904 12.6503 14.4367 12.2209 15.802 10.8555C17.4422 9.21535 17.76 6.86241 16.4976 5.60006C16.0253 5.14493 15.3984 4.87872 14.72 4.83579ZM1.85615 5.14493C1.21282 5.79011 0.851562 6.66405 0.851562 7.57516C0.851562 8.48627 1.21282 9.36021 1.85615 10.0054L5.45426 13.5949L7.88449 11.1561L1.85615 5.14493Z" fill="black"/>
</svg>
