<svg width="50" height="51" viewBox="0 0 50 51" fill="none" xmlns="http://www.w3.org/2000/svg">
<path d="M25 0.609375C11.1927 0.609375 0 11.8021 0 25.6094C0 39.4167 11.1927 50.6094 25 50.6094C38.8073 50.6094 50 39.4167 50 25.6094C50 11.8021 38.8073 0.609375 25 0.609375ZM18.8802 35.9714H13.8177V19.6797H18.8802V35.9714ZM16.3177 17.6797C14.7187 17.6797 13.6849 16.5469 13.6849 15.1458C13.6849 13.7161 14.75 12.6172 16.3828 12.6172C18.0156 12.6172 19.0156 13.7161 19.0469 15.1458C19.0469 16.5469 18.0156 17.6797 16.3177 17.6797ZM37.3698 35.9714H32.3073V26.9427C32.3073 24.8411 31.5729 23.4141 29.7422 23.4141C28.3438 23.4141 27.513 24.3802 27.1458 25.3099C27.0104 25.6406 26.9766 26.1094 26.9766 26.5755V35.9687H21.9115V24.875C21.9115 22.8411 21.8464 21.1406 21.7786 19.6771H26.1771L26.4089 21.9401H26.5104C27.1771 20.8776 28.8099 19.3099 31.5417 19.3099C34.8724 19.3099 37.3698 21.5417 37.3698 26.3385V35.9714Z" fill="#0E76A8"/>
</svg>
