<svg width="20" height="20" viewBox="0 0 20 20" fill="none" xmlns="http://www.w3.org/2000/svg">
<path d="M17.8571 0.0820312H2.14286C0.959821 0.0820312 0 0.998224 0 2.12749V17.1275C0 18.2567 0.959821 19.1729 2.14286 19.1729H17.8571C19.0402 19.1729 20 18.2567 20 17.1275V2.12749C20 0.998224 19.0402 0.0820312 17.8571 0.0820312ZM10.7143 12.3548H8.57143V14.4002C8.57143 14.7752 8.25 15.082 7.85714 15.082H6.42857C6.03571 15.082 5.71429 14.7752 5.71429 14.4002V4.85476C5.71429 4.47976 6.03571 4.17294 6.42857 4.17294H10.7143C13.0759 4.17294 15 6.00959 15 8.26385C15 10.5181 13.0759 12.3548 10.7143 12.3548ZM10.7143 6.90021H8.57143V9.62749H10.7143C11.5 9.62749 12.1429 9.01385 12.1429 8.26385C12.1429 7.51385 11.5 6.90021 10.7143 6.90021Z" fill="black"/>
</svg>
